<?xml version="1.0" encoding="UTF-8"?>
<svg version="1.1" xmlns="http://www.w3.org/2000/svg" width="128" height="128">
<path d="M0 0 C12.5845674 12.07548296 19.28348225 27.56180156 20.37890625 44.75 C20.54687759 61.78975939 14.94971704 78.91529947 3.25 91.60546875 C-10.84589072 104.74163925 -26.49292065 111.13609444 -45.5859375 111.31640625 C-61.60173413 110.23029733 -78.39493556 104.32501564 -89.5859375 92.31640625 C-102.27663191 77.47322657 -108.66679225 61.25472467 -107.33984375 41.6875 C-105.12113032 23.80035013 -97.2075721 7.81738807 -82.8984375 -3.43359375 C-57.00643932 -21.92787816 -24.43894937 -20.44337511 0 0 Z M-71.5859375 23.31640625 C-74.62015484 27.6654511 -75.025658 31.03774694 -74.21875 36.13671875 C-72.99675196 40.34582312 -70.58054187 43.1616353 -66.8046875 45.34765625 C-63.95349206 46.65244061 -61.7334 47.31640625 -58.5859375 47.31640625 C-58.2559375 49.62640625 -57.9259375 51.93640625 -57.5859375 54.31640625 C-58.1428125 54.33058594 -58.6996875 54.34476563 -59.2734375 54.359375 C-65.47227021 54.74680204 -69.80609888 56.30263657 -74.5859375 60.31640625 C-77.16364121 63.34520811 -78.38660382 65.37953797 -79.2109375 69.25390625 C-78.28252189 73.80314273 -76.21298394 76.45523017 -72.5859375 79.31640625 C-65.52385692 82.76250743 -57.50177863 83.58663089 -49.91015625 81.625 C-44.21501645 79.60849865 -40.70065192 77.54108851 -37.5859375 72.31640625 C-36.07465935 67.64950328 -36.17720622 63.54162103 -38.3515625 59.0390625 C-40.40219714 56.1772591 -43.12640599 54.16939349 -45.94140625 52.08984375 C-47.5859375 50.31640625 -47.5859375 50.31640625 -48.0390625 47.8671875 C-47.47420647 44.6874376 -46.3712302 43.44114735 -44.1484375 41.12890625 C-40.42773532 37.27682296 -40.42773532 37.27682296 -39.3359375 32.12890625 C-39.62272188 27.75544451 -40.67691812 25.21398747 -42.5859375 21.31640625 C-41.9878125 21.19265625 -41.3896875 21.06890625 -40.7734375 20.94140625 C-38.32362402 20.3616464 -38.32362402 20.3616464 -35.5859375 18.31640625 C-35.5859375 17.65640625 -35.5859375 16.99640625 -35.5859375 16.31640625 C-39.43995879 16.22870242 -43.29372041 16.1757789 -47.1484375 16.12890625 C-48.23447266 16.10376953 -49.32050781 16.07863281 -50.43945312 16.05273438 C-59.05259157 15.97419512 -65.18044587 17.08884494 -71.5859375 23.31640625 Z M-22.5859375 30.31640625 C-23.89856321 31.40192991 -23.89856321 31.40192991 -23.68359375 34.0390625 C-23.67199219 35.14121094 -23.66039063 36.24335937 -23.6484375 37.37890625 C-23.6278125 39.33828125 -23.6071875 41.29765625 -23.5859375 43.31640625 C-27.5459375 43.31640625 -31.5059375 43.31640625 -35.5859375 43.31640625 C-35.5859375 44.96640625 -35.5859375 46.61640625 -35.5859375 48.31640625 C-34.52614817 49.60253301 -34.52614817 49.60253301 -32.08203125 49.4140625 C-29.25 49.38151042 -26.41796875 49.34895833 -23.5859375 49.31640625 C-23.5859375 53.27640625 -23.5859375 57.23640625 -23.5859375 61.31640625 C-21.9359375 61.31640625 -20.2859375 61.31640625 -18.5859375 61.31640625 C-17.29981074 60.25661692 -17.29981074 60.25661692 -17.48828125 57.8125 C-17.49988281 56.80316406 -17.51148437 55.79382813 -17.5234375 54.75390625 C-17.53246094 53.74199219 -17.54148437 52.73007813 -17.55078125 51.6875 C-17.56238281 50.90503906 -17.57398437 50.12257813 -17.5859375 49.31640625 C-16.41224609 49.33380859 -16.41224609 49.33380859 -15.21484375 49.3515625 C-14.20292969 49.36058594 -13.19101563 49.36960937 -12.1484375 49.37890625 C-11.13910156 49.39050781 -10.12976563 49.40210937 -9.08984375 49.4140625 C-6.64572683 49.60253301 -6.64572683 49.60253301 -5.5859375 48.31640625 C-5.5859375 46.66640625 -5.5859375 45.01640625 -5.5859375 43.31640625 C-9.5459375 43.31640625 -13.5059375 43.31640625 -17.5859375 43.31640625 C-17.5859375 39.35640625 -17.5859375 35.39640625 -17.5859375 31.31640625 C-19.2359375 30.98640625 -20.8859375 30.65640625 -22.5859375 30.31640625 Z " fill="#000000" transform="translate(107.5859375,16.68359375)"/>
<path d="M0 0 C2.69120414 2.0225139 4.4880474 3.70402597 5.4609375 6.98046875 C5.70543027 10.50909409 5.12282898 12.59383795 2.98046875 15.37890625 C-1.86658207 17.80243166 -6.89245241 18.6802398 -12.2421875 17.46484375 C-15.84975111 16.07083828 -18.55930622 14.50816257 -20.14453125 10.94140625 C-20.14453125 6.60371606 -19.87136154 4.66823654 -16.76953125 1.56640625 C-11.66201557 -1.59538917 -5.55022544 -2.73972877 0 0 Z " fill="#000000" transform="translate(58.14453125,76.05859375)"/>
<path d="M0 0 C4.33841393 0.50058622 5.56133354 2.01416693 8.25 5.375 C10.68463638 9.35895043 10.28305498 12.80940311 9.83203125 17.2890625 C9.12987599 19.80551155 8.34095278 20.825235 6.25 22.375 C1.73210027 22.45866481 -0.19637384 21.85641405 -3.625 18.875 C-6.3901761 15.07517192 -7.0746838 11.01456067 -6.75 6.375 C-4.08333333 0.55681818 -4.08333333 0.55681818 0 0 Z " fill="#000000" transform="translate(48.75,37.625)"/>
</svg>
